# xmcd
#
# Track frame offsets:
#	150
#	15482
#	30907
#	47222
#	64552
#	81675
#	94502
#	110207
#	125962
#	145945
#	161292
#	176175
#	194355
#	209940
#	228730
#	239250
#	248392
#	259990
#
# Disc length: 3609
#
# Revision: 4
# Processed by: cddbd v1.5.1PL0 Copyright (c) Steve Scherf et al.
# Submitted via: OrangeCD 5.2
# Normalized: r3:DSETVAR1
#
DISCID=080e1712
DTITLE=Various Artist - I Love Line Dancing
DYEAR=1998
DGENRE=country
TTITLE0=Steps - 5,6,7,8
TTITLE1=Tennessee Country Orchestra - Hooked On Country
TTITLE2=The Bellamy Brothers - Native American
TTITLE3=Sham Rock - I'll Tell Me Ma
TTITLE4=Rye Brothers - Cry Of The Celts
TTITLE5=Ronnie Beard - Million $ Cowboy
TTITLE6=Arrow - Hot, Hot, Hot
TTITLE7=Scooter Lee - He's My Little Jalapeno
TTITLE8=Bellamy Brothers - We Dared The Lightning
TTITLE9=Petra Stapp - Black Coffee
TTITLE10=Rednex - Hittin' The Hay
TTITLE11=Kickin' Country - Rock It Megamix
TTITLE12=Dave Sheriff - Outlaw Of The Heart
TTITLE13=Back Door - One Heart, One Mind
TTITLE14=Texas Fever - Hillbilly Rock
TTITLE15=Jake and Elwood - 634-5789
TTITLE16=Travis McCready - Waltz Across Texas
TTITLE17=Sherrick Brothers - Dolly Parton's Hits
EXTD=
EXTT0=
EXTT1=
EXTT2=
EXTT3=
EXTT4=
EXTT5=
EXTT6=
EXTT7=
EXTT8=
EXTT9=
EXTT10=
EXTT11=
EXTT12=
EXTT13=
EXTT14=
EXTT15=
EXTT16=
EXTT17=
PLAYORDER=
